<svg xmlns="http://www.w3.org/2000/svg" xmlns:xlink="http://www.w3.org/1999/xlink" width="1366" zoomAndPan="magnify" viewBox="0 0 1024.5 208.499994" height="278" preserveAspectRatio="xMidYMid meet" version="1.0"><defs><g/><clipPath id="67439f950d"><path d="M 0.976562 0 L 1023.023438 0 L 1023.023438 208 L 0.976562 208 Z M 0.976562 0 " clip-rule="nonzero"/></clipPath><clipPath id="a512b4d5bf"><path d="M 76.351562 46.242188 L 193.816406 46.242188 L 193.816406 164.460938 L 76.351562 164.460938 Z M 76.351562 46.242188 " clip-rule="nonzero"/></clipPath></defs><g clip-path="url(#67439f950d)"><path fill="#ffffff" d="M 0.976562 0 L 1023.023438 0 L 1023.023438 208 L 0.976562 208 Z M 0.976562 0 " fill-opacity="1" fill-rule="nonzero"/><path fill="#ffffff" d="M 0.976562 0 L 1023.023438 0 L 1023.023438 208 L 0.976562 208 Z M 0.976562 0 " fill-opacity="1" fill-rule="nonzero"/></g><g fill="#000000" fill-opacity="1"><g transform="translate(223.84469, 138.210604)"><g><path d="M 52.5 -58.421875 C 56.875 -58.421875 60.554688 -58.15625 63.546875 -57.625 C 66.546875 -57.09375 69.015625 -56.285156 70.953125 -55.203125 C 72.890625 -54.117188 74.378906 -52.757812 75.421875 -51.125 C 76.460938 -49.488281 77.222656 -47.5625 77.703125 -45.34375 C 78.191406 -43.132812 78.476562 -40.640625 78.5625 -37.859375 C 78.65625 -35.078125 78.703125 -32 78.703125 -28.625 C 78.703125 -25.238281 78.65625 -22.15625 78.5625 -19.375 C 78.476562 -16.59375 78.191406 -14.09375 77.703125 -11.875 C 77.222656 -9.664062 76.460938 -7.742188 75.421875 -6.109375 C 74.378906 -4.472656 72.890625 -3.113281 70.953125 -2.03125 C 69.015625 -0.945312 66.546875 -0.140625 63.546875 0.390625 C 60.554688 0.921875 56.875 1.1875 52.5 1.1875 L 30.96875 1.1875 C 26.59375 1.1875 22.90625 0.921875 19.90625 0.390625 C 16.914062 -0.140625 14.453125 -0.945312 12.515625 -2.03125 C 10.578125 -3.113281 9.082031 -4.472656 8.03125 -6.109375 C 6.976562 -7.742188 6.207031 -9.664062 5.71875 -11.875 C 5.238281 -14.09375 4.957031 -16.59375 4.875 -19.375 C 4.800781 -22.15625 4.765625 -25.238281 4.765625 -28.625 C 4.765625 -32 4.800781 -35.078125 4.875 -37.859375 C 4.957031 -40.640625 5.238281 -43.132812 5.71875 -45.34375 C 6.207031 -47.5625 6.976562 -49.488281 8.03125 -51.125 C 9.082031 -52.757812 10.578125 -54.117188 12.515625 -55.203125 C 14.453125 -56.285156 16.914062 -57.09375 19.90625 -57.625 C 22.90625 -58.15625 26.59375 -58.421875 30.96875 -58.421875 Z M 52.5 -4.765625 C 55.65625 -4.765625 58.316406 -4.859375 60.484375 -5.046875 C 62.660156 -5.234375 64.457031 -5.613281 65.875 -6.1875 C 67.289062 -6.757812 68.382812 -7.578125 69.15625 -8.640625 C 69.925781 -9.710938 70.484375 -11.128906 70.828125 -12.890625 C 71.179688 -14.648438 71.390625 -16.816406 71.453125 -19.390625 C 71.515625 -21.960938 71.546875 -25.039062 71.546875 -28.625 C 71.546875 -32.195312 71.515625 -35.269531 71.453125 -37.84375 C 71.390625 -40.414062 71.179688 -42.582031 70.828125 -44.34375 C 70.484375 -46.101562 69.925781 -47.515625 69.15625 -48.578125 C 68.382812 -49.648438 67.296875 -50.472656 65.890625 -51.046875 C 64.492188 -51.617188 62.707031 -52 60.53125 -52.1875 C 58.351562 -52.375 55.675781 -52.46875 52.5 -52.46875 L 30.96875 -52.46875 C 27.78125 -52.46875 25.097656 -52.375 22.921875 -52.1875 C 20.753906 -52 18.960938 -51.617188 17.546875 -51.046875 C 16.128906 -50.472656 15.035156 -49.648438 14.265625 -48.578125 C 13.492188 -47.515625 12.9375 -46.101562 12.59375 -44.34375 C 12.25 -42.582031 12.050781 -40.414062 12 -37.84375 C 11.945312 -35.269531 11.921875 -32.195312 11.921875 -28.625 C 11.921875 -25.039062 11.953125 -21.960938 12.015625 -19.390625 C 12.078125 -16.816406 12.28125 -14.648438 12.625 -12.890625 C 12.976562 -11.128906 13.53125 -9.710938 14.28125 -8.640625 C 15.039062 -7.578125 16.128906 -6.757812 17.546875 -6.1875 C 18.960938 -5.613281 20.753906 -5.234375 22.921875 -5.046875 C 25.097656 -4.859375 27.78125 -4.765625 30.96875 -4.765625 Z M 52.5 -4.765625 "/></g></g></g><g fill="#000000" fill-opacity="1"><g transform="translate(307.3036, 138.210604)"><g><path d="M 72.734375 0 L 65.578125 0 L 65.578125 -10.734375 C 65.578125 -12.472656 65.546875 -13.96875 65.484375 -15.21875 C 65.421875 -16.476562 65.207031 -17.550781 64.84375 -18.4375 C 64.488281 -19.332031 63.925781 -20.050781 63.15625 -20.59375 C 62.382812 -21.144531 61.289062 -21.566406 59.875 -21.859375 C 58.457031 -22.160156 56.660156 -22.367188 54.484375 -22.484375 C 52.316406 -22.597656 49.644531 -22.65625 46.46875 -22.65625 L 14.3125 -22.65625 L 14.3125 0 L 7.15625 0 L 7.15625 -57.234375 L 47.65625 -57.234375 C 52.03125 -57.234375 55.710938 -57.078125 58.703125 -56.765625 C 61.703125 -56.453125 64.175781 -55.984375 66.125 -55.359375 C 68.070312 -54.742188 69.570312 -53.976562 70.625 -53.0625 C 71.6875 -52.144531 72.457031 -51.0625 72.9375 -49.8125 C 73.425781 -48.570312 73.710938 -47.179688 73.796875 -45.640625 C 73.878906 -44.097656 73.921875 -42.398438 73.921875 -40.546875 C 73.921875 -38.160156 73.753906 -36.066406 73.421875 -34.265625 C 73.085938 -32.460938 72.519531 -30.925781 71.71875 -29.65625 C 70.925781 -28.394531 69.875 -27.382812 68.5625 -26.625 C 67.25 -25.863281 65.597656 -25.335938 63.609375 -25.046875 C 65.597656 -24.742188 67.1875 -24.21875 68.375 -23.46875 C 69.570312 -22.726562 70.492188 -21.757812 71.140625 -20.5625 C 71.785156 -19.375 72.210938 -17.957031 72.421875 -16.3125 C 72.628906 -14.675781 72.734375 -12.816406 72.734375 -10.734375 Z M 14.3125 -28.625 L 47.65625 -28.625 C 50.832031 -28.625 53.507812 -28.675781 55.6875 -28.78125 C 57.863281 -28.894531 59.660156 -29.097656 61.078125 -29.390625 C 62.492188 -29.691406 63.582031 -30.113281 64.34375 -30.65625 C 65.113281 -31.207031 65.679688 -31.929688 66.046875 -32.828125 C 66.410156 -33.722656 66.625 -34.796875 66.6875 -36.046875 C 66.75 -37.304688 66.78125 -38.804688 66.78125 -40.546875 C 66.78125 -42.160156 66.75 -43.550781 66.6875 -44.71875 C 66.625 -45.882812 66.410156 -46.863281 66.046875 -47.65625 C 65.679688 -48.445312 65.113281 -49.078125 64.34375 -49.546875 C 63.582031 -50.023438 62.492188 -50.394531 61.078125 -50.65625 C 59.660156 -50.914062 57.863281 -51.082031 55.6875 -51.15625 C 53.507812 -51.226562 50.832031 -51.265625 47.65625 -51.265625 L 14.3125 -51.265625 Z M 14.3125 -28.625 "/></g></g></g><g fill="#000000" fill-opacity="1"><g transform="translate(385.99343, 138.210604)"><g><path d="M 50.046875 -5.96875 C 53.203125 -5.96875 55.867188 -6.050781 58.046875 -6.21875 C 60.234375 -6.394531 62.035156 -6.75 63.453125 -7.28125 C 64.867188 -7.8125 65.960938 -8.585938 66.734375 -9.609375 C 67.503906 -10.628906 68.066406 -11.976562 68.421875 -13.65625 C 68.785156 -15.332031 69 -17.394531 69.0625 -19.84375 C 69.125 -22.289062 69.15625 -25.21875 69.15625 -28.625 C 69.15625 -32.019531 69.125 -34.941406 69.0625 -37.390625 C 69 -39.835938 68.785156 -41.898438 68.421875 -43.578125 C 68.066406 -45.253906 67.503906 -46.601562 66.734375 -47.625 C 65.960938 -48.644531 64.867188 -49.421875 63.453125 -49.953125 C 62.035156 -50.484375 60.238281 -50.832031 58.0625 -51 C 55.894531 -51.175781 53.222656 -51.265625 50.046875 -51.265625 L 14.3125 -51.265625 L 14.3125 -5.96875 Z M 7.15625 0 L 7.15625 -57.234375 L 50.046875 -57.234375 C 54.410156 -57.234375 58.085938 -56.976562 61.078125 -56.46875 C 64.078125 -55.957031 66.550781 -55.179688 68.5 -54.140625 C 70.457031 -53.097656 71.960938 -51.789062 73.015625 -50.21875 C 74.066406 -48.65625 74.832031 -46.8125 75.3125 -44.6875 C 75.800781 -42.570312 76.085938 -40.175781 76.171875 -37.5 C 76.265625 -34.832031 76.3125 -31.875 76.3125 -28.625 C 76.3125 -25.363281 76.265625 -22.394531 76.171875 -19.71875 C 76.085938 -17.050781 75.800781 -14.65625 75.3125 -12.53125 C 74.832031 -10.414062 74.066406 -8.570312 73.015625 -7 C 71.960938 -5.4375 70.457031 -4.132812 68.5 -3.09375 C 66.550781 -2.050781 64.078125 -1.273438 61.078125 -0.765625 C 58.085938 -0.253906 54.410156 0 50.046875 0 Z M 7.15625 0 "/></g></g></g><g fill="#000000" fill-opacity="1"><g transform="translate(467.0678, 138.210604)"><g><path d="M 7.15625 0 L 7.15625 -57.234375 L 64.390625 -57.234375 L 64.390625 -51.265625 L 14.3125 -51.265625 L 14.3125 -32.1875 L 62 -32.1875 L 62 -26.234375 L 14.3125 -26.234375 L 14.3125 -5.96875 L 64.390625 -5.96875 L 64.390625 0 Z M 7.15625 0 "/></g></g></g><g fill="#000000" fill-opacity="1"><g transform="translate(533.834928, 138.210604)"><g><path d="M 72.734375 0 L 65.578125 0 L 65.578125 -10.734375 C 65.578125 -12.472656 65.546875 -13.96875 65.484375 -15.21875 C 65.421875 -16.476562 65.207031 -17.550781 64.84375 -18.4375 C 64.488281 -19.332031 63.925781 -20.050781 63.15625 -20.59375 C 62.382812 -21.144531 61.289062 -21.566406 59.875 -21.859375 C 58.457031 -22.160156 56.660156 -22.367188 54.484375 -22.484375 C 52.316406 -22.597656 49.644531 -22.65625 46.46875 -22.65625 L 14.3125 -22.65625 L 14.3125 0 L 7.15625 0 L 7.15625 -57.234375 L 47.65625 -57.234375 C 52.03125 -57.234375 55.710938 -57.078125 58.703125 -56.765625 C 61.703125 -56.453125 64.175781 -55.984375 66.125 -55.359375 C 68.070312 -54.742188 69.570312 -53.976562 70.625 -53.0625 C 71.6875 -52.144531 72.457031 -51.0625 72.9375 -49.8125 C 73.425781 -48.570312 73.710938 -47.179688 73.796875 -45.640625 C 73.878906 -44.097656 73.921875 -42.398438 73.921875 -40.546875 C 73.921875 -38.160156 73.753906 -36.066406 73.421875 -34.265625 C 73.085938 -32.460938 72.519531 -30.925781 71.71875 -29.65625 C 70.925781 -28.394531 69.875 -27.382812 68.5625 -26.625 C 67.25 -25.863281 65.597656 -25.335938 63.609375 -25.046875 C 65.597656 -24.742188 67.1875 -24.21875 68.375 -23.46875 C 69.570312 -22.726562 70.492188 -21.757812 71.140625 -20.5625 C 71.785156 -19.375 72.210938 -17.957031 72.421875 -16.3125 C 72.628906 -14.675781 72.734375 -12.816406 72.734375 -10.734375 Z M 14.3125 -28.625 L 47.65625 -28.625 C 50.832031 -28.625 53.507812 -28.675781 55.6875 -28.78125 C 57.863281 -28.894531 59.660156 -29.097656 61.078125 -29.390625 C 62.492188 -29.691406 63.582031 -30.113281 64.34375 -30.65625 C 65.113281 -31.207031 65.679688 -31.929688 66.046875 -32.828125 C 66.410156 -33.722656 66.625 -34.796875 66.6875 -36.046875 C 66.75 -37.304688 66.78125 -38.804688 66.78125 -40.546875 C 66.78125 -42.160156 66.75 -43.550781 66.6875 -44.71875 C 66.625 -45.882812 66.410156 -46.863281 66.046875 -47.65625 C 65.679688 -48.445312 65.113281 -49.078125 64.34375 -49.546875 C 63.582031 -50.023438 62.492188 -50.394531 61.078125 -50.65625 C 59.660156 -50.914062 57.863281 -51.082031 55.6875 -51.15625 C 53.507812 -51.226562 50.832031 -51.265625 47.65625 -51.265625 L 14.3125 -51.265625 Z M 14.3125 -28.625 "/></g></g></g><g fill="#000000" fill-opacity="1"><g transform="translate(612.524758, 138.210604)"><g><path d="M 14.3125 -52.46875 L 14.3125 0 L 7.15625 0 L 7.15625 -57.234375 L 19.078125 -57.234375 L 52.421875 -7.15625 L 85.78125 -57.234375 L 97.171875 -57.234375 L 97.171875 0 L 90.03125 0 L 90.03125 -51.6875 L 56.046875 0 L 48.8125 0 Z M 14.3125 -52.46875 "/></g></g></g><g fill="#000000" fill-opacity="1"><g transform="translate(716.848397, 138.210604)"><g><path d="M 63.203125 -13.109375 L 17.890625 -13.109375 L 10.734375 0 L 2.390625 0 L 35.765625 -57.234375 L 45.3125 -57.234375 L 78.703125 0 L 70.34375 0 Z M 59.625 -19.078125 L 40.546875 -52.46875 L 21.46875 -19.078125 Z M 59.625 -19.078125 "/></g></g></g><g fill="#000000" fill-opacity="1"><g transform="translate(797.922766, 138.210604)"><g><path d="M 69.15625 -57.234375 L 69.15625 -51.265625 L 40.546875 -51.265625 L 40.546875 0 L 33.390625 0 L 33.390625 -51.265625 L 4.765625 -51.265625 L 4.765625 -57.234375 Z M 69.15625 -57.234375 "/></g></g></g><g fill="#000000" fill-opacity="1"><g transform="translate(871.843515, 138.210604)"><g><path d="M 7.15625 -57.234375 L 14.3125 -57.234375 L 14.3125 0 L 7.15625 0 Z M 7.15625 -57.234375 "/></g></g></g><g fill="#000000" fill-opacity="1"><g transform="translate(893.304378, 138.210604)"><g><path d="M 66.734375 -39.34375 C 66.734375 -42.320312 66.410156 -44.679688 65.765625 -46.421875 C 65.117188 -48.160156 64.050781 -49.476562 62.5625 -50.375 C 61.070312 -51.269531 59.113281 -51.84375 56.6875 -52.09375 C 54.269531 -52.34375 51.273438 -52.46875 47.703125 -52.46875 L 30.96875 -52.46875 C 27.78125 -52.46875 25.097656 -52.375 22.921875 -52.1875 C 20.753906 -52 18.960938 -51.617188 17.546875 -51.046875 C 16.128906 -50.472656 15.035156 -49.648438 14.265625 -48.578125 C 13.492188 -47.515625 12.9375 -46.101562 12.59375 -44.34375 C 12.25 -42.582031 12.050781 -40.414062 12 -37.84375 C 11.945312 -35.269531 11.921875 -32.195312 11.921875 -28.625 C 11.921875 -25.039062 11.953125 -21.960938 12.015625 -19.390625 C 12.078125 -16.816406 12.28125 -14.648438 12.625 -12.890625 C 12.976562 -11.128906 13.53125 -9.710938 14.28125 -8.640625 C 15.039062 -7.578125 16.128906 -6.757812 17.546875 -6.1875 C 18.960938 -5.613281 20.753906 -5.234375 22.921875 -5.046875 C 25.097656 -4.859375 27.78125 -4.765625 30.96875 -4.765625 L 47.703125 -4.765625 C 50.484375 -4.765625 52.878906 -4.835938 54.890625 -4.984375 C 56.898438 -5.140625 58.613281 -5.414062 60.03125 -5.8125 C 61.445312 -6.207031 62.585938 -6.753906 63.453125 -7.453125 C 64.328125 -8.148438 65.003906 -9.023438 65.484375 -10.078125 C 65.972656 -11.128906 66.300781 -12.394531 66.46875 -13.875 C 66.644531 -15.351562 66.734375 -17.085938 66.734375 -19.078125 L 73.890625 -19.078125 C 73.890625 -16.691406 73.738281 -14.535156 73.4375 -12.609375 C 73.144531 -10.679688 72.617188 -8.96875 71.859375 -7.46875 C 71.097656 -5.96875 70.082031 -4.671875 68.8125 -3.578125 C 67.550781 -2.484375 65.953125 -1.582031 64.015625 -0.875 C 62.078125 -0.164062 59.765625 0.351562 57.078125 0.6875 C 54.398438 1.019531 51.273438 1.1875 47.703125 1.1875 L 30.96875 1.1875 C 26.59375 1.1875 22.90625 0.921875 19.90625 0.390625 C 16.914062 -0.140625 14.453125 -0.945312 12.515625 -2.03125 C 10.578125 -3.113281 9.082031 -4.472656 8.03125 -6.109375 C 6.976562 -7.742188 6.207031 -9.664062 5.71875 -11.875 C 5.238281 -14.09375 4.957031 -16.59375 4.875 -19.375 C 4.800781 -22.15625 4.765625 -25.238281 4.765625 -28.625 C 4.765625 -32 4.800781 -35.078125 4.875 -37.859375 C 4.957031 -40.640625 5.238281 -43.132812 5.71875 -45.34375 C 6.207031 -47.5625 6.976562 -49.488281 8.03125 -51.125 C 9.082031 -52.757812 10.578125 -54.117188 12.515625 -55.203125 C 14.453125 -56.285156 16.914062 -57.09375 19.90625 -57.625 C 22.90625 -58.15625 26.59375 -58.421875 30.96875 -58.421875 L 47.703125 -58.421875 C 51.273438 -58.421875 54.398438 -58.253906 57.078125 -57.921875 C 59.765625 -57.585938 62.078125 -57.078125 64.015625 -56.390625 C 65.953125 -55.710938 67.550781 -54.847656 68.8125 -53.796875 C 70.082031 -52.753906 71.097656 -51.523438 71.859375 -50.109375 C 72.617188 -48.703125 73.144531 -47.101562 73.4375 -45.3125 C 73.738281 -43.519531 73.890625 -41.53125 73.890625 -39.34375 Z M 66.734375 -39.34375 "/></g></g></g><g clip-path="url(#a512b4d5bf)"><path fill="#000000" d="M 176.691406 63.46875 C 165.648438 52.40625 150.96875 46.300781 135.324219 46.300781 C 103.089844 46.300781 76.851562 72.554688 76.839844 104.832031 C 76.839844 115.144531 79.53125 125.222656 84.648438 134.09375 L 76.351562 164.425781 L 107.355469 156.28125 C 115.898438 160.949219 125.515625 163.402344 135.300781 163.40625 L 135.324219 163.40625 C 167.550781 163.40625 193.792969 137.148438 193.800781 104.878906 C 193.800781 89.238281 187.730469 74.535156 176.683594 63.46875 Z M 135.324219 153.527344 L 135.304688 153.527344 C 126.585938 153.527344 118.027344 151.175781 110.5625 146.746094 L 108.789062 145.6875 L 90.390625 150.519531 L 95.296875 132.5625 L 94.140625 130.722656 C 89.277344 122.980469 86.707031 114.023438 86.714844 104.832031 C 86.726562 78.011719 108.53125 56.183594 135.339844 56.183594 C 148.324219 56.183594 160.527344 61.253906 169.707031 70.453125 C 178.886719 79.648438 183.933594 91.871094 183.925781 104.871094 C 183.914062 131.699219 162.109375 153.527344 135.316406 153.527344 Z M 161.984375 117.089844 C 160.527344 116.363281 153.34375 112.820312 152 112.335938 C 150.660156 111.847656 149.691406 111.605469 148.714844 113.066406 C 147.742188 114.535156 144.941406 117.828125 144.089844 118.804688 C 143.234375 119.777344 142.382812 119.902344 140.917969 119.164062 C 139.460938 118.433594 134.75 116.886719 129.167969 111.90625 C 124.824219 108.027344 121.890625 103.238281 121.039062 101.769531 C 120.1875 100.304688 120.949219 99.515625 121.679688 98.785156 C 122.332031 98.132812 123.140625 97.074219 123.875 96.222656 C 124.601562 95.371094 124.847656 94.757812 125.332031 93.78125 C 125.824219 92.804688 125.578125 91.953125 125.210938 91.21875 C 124.84375 90.488281 121.925781 83.285156 120.707031 80.359375 C 119.519531 77.507812 118.3125 77.894531 117.421875 77.847656 C 116.566406 77.808594 115.59375 77.796875 114.617188 77.796875 C 113.644531 77.796875 112.0625 78.15625 110.722656 79.625 C 109.378906 81.089844 105.609375 84.628906 105.609375 91.824219 C 105.609375 99.019531 110.84375 105.976562 111.578125 106.957031 C 112.308594 107.933594 121.882812 122.703125 136.542969 129.042969 C 140.027344 130.546875 142.75 131.449219 144.875 132.125 C 148.378906 133.242188 151.5625 133.082031 154.078125 132.703125 C 156.886719 132.28125 162.722656 129.164062 163.941406 125.746094 C 165.160156 122.332031 165.160156 119.40625 164.792969 118.792969 C 164.425781 118.179688 163.449219 117.816406 161.992188 117.078125 Z M 161.984375 117.089844 " fill-opacity="1" fill-rule="evenodd"/></g></svg>